<svg id="Ebene_1" data-name="Ebene 1" xmlns="http://www.w3.org/2000/svg" viewBox="0 0 246 60"><defs><style>.cls-1{fill:#b01620;}</style></defs><title>logo</title><rect class="cls-1" x="109" y="15" width="6" height="30"/><path class="cls-1" d="M104.5,42V30.11a2.7,2.7,0,0,0-.9-2.09,3.05,3.05,0,0,0-2.25-.9H91.81V20.91h6.31v3.14l6.3.68V18.07a2.87,2.87,0,0,0-.9-2.17,3.73,3.73,0,0,0-2.25-.9H88.65a3.05,3.05,0,0,0-2.25.9,2.76,2.76,0,0,0-.9,2.17V30a2.72,2.72,0,0,0,.9,2.1,3.05,3.05,0,0,0,2.25.9h9.54v6.13H91.88V36l-6.3-.75V42a2.7,2.7,0,0,0,.9,2.09,3.73,3.73,0,0,0,2.25.9h12.62a3.05,3.05,0,0,0,2.25-.9,2.59,2.59,0,0,0,.9-2.09"/><path class="cls-1" d="M80.5,42V30.11A2.7,2.7,0,0,0,79.6,28a3.1,3.1,0,0,0-2.27-.9h-9.5V20.91h6.34v3.14l6.33.68V18.07a2.87,2.87,0,0,0-.9-2.17,3.79,3.79,0,0,0-2.27-.9H64.67a3.1,3.1,0,0,0-2.27.9,2.76,2.76,0,0,0-.9,2.17V30a2.72,2.72,0,0,0,.9,2.1,3.1,3.1,0,0,0,2.27.9h9.5v6.13H67.83V36l-6.33-.75V42a2.7,2.7,0,0,0,.9,2.09,3.79,3.79,0,0,0,2.27.9H77.33a3.1,3.1,0,0,0,2.27-.9A2.59,2.59,0,0,0,80.5,42"/><path class="cls-1" d="M50.17,27.12H43.83V20.91h6.34ZM56.5,45V18.07a2.87,2.87,0,0,0-.9-2.17,3.79,3.79,0,0,0-2.27-.9H40.67a3.1,3.1,0,0,0-2.27.9,2.76,2.76,0,0,0-.9,2.17V45h6.33V33h6.34V45Z"/><path class="cls-1" d="M27.19,27.23H20.88v-6.3h6.31Zm6.31,2.84v-12a2.87,2.87,0,0,0-.9-2.17,3.86,3.86,0,0,0-2.25-.9H14.5V45h6.31V33.07h9.54a3.34,3.34,0,0,0,2.25-.82,3.63,3.63,0,0,0,.9-2.18"/><path class="cls-1" d="M132.17,39.16h-6.34V20.91h6.34ZM138.5,42V18.07a2.87,2.87,0,0,0-.9-2.17,3.79,3.79,0,0,0-2.27-.9H122.67a3.1,3.1,0,0,0-2.27.9,2.76,2.76,0,0,0-.9,2.17V42a2.7,2.7,0,0,0,.9,2.09,3.79,3.79,0,0,0,2.27.9h12.66a3.1,3.1,0,0,0,2.27-.9,2.59,2.59,0,0,0,.9-2.09"/><path class="cls-1" d="M162.5,45V18.07a2.87,2.87,0,0,0-.9-2.17,3.79,3.79,0,0,0-2.27-.9H146.67a3.1,3.1,0,0,0-2.27.9,2.76,2.76,0,0,0-.9,2.17V45h6.33V20.91h6.34V45Z"/><polygon class="cls-1" points="166.5 15 166.5 20.85 172.83 20.85 172.83 45 179.17 45 179.17 20.85 185.5 20.85 185.5 15 166.5 15"/><polygon class="cls-1" points="189.5 15 189.5 45 208.5 45 208.5 39.15 195.83 39.15 195.83 32.92 205.33 32.92 205.33 27.07 195.83 27.07 195.83 20.85 208.5 20.85 208.5 15 189.5 15"/><path class="cls-1" d="M231.5,42V35.27l-6.33.75v3.14h-6.34V20.91h6.34v3.14l6.33.68V18.07a2.87,2.87,0,0,0-.9-2.17,3.79,3.79,0,0,0-2.27-.9H215.67a3.1,3.1,0,0,0-2.27.9,2.76,2.76,0,0,0-.9,2.17V42a2.7,2.7,0,0,0,.9,2.09,3.79,3.79,0,0,0,2.27.9h12.66a3.1,3.1,0,0,0,2.27-.9,2.59,2.59,0,0,0,.9-2.09"/></svg>