<svg id="Ebene_1" data-name="Ebene 1" xmlns="http://www.w3.org/2000/svg" viewBox="0 0 40 40"><defs><style>.cls-1{fill:#b01620;}.cls-2{fill:#fff;}</style></defs><title>lupe_bg</title><rect class="cls-1" width="40" height="40"/><path class="cls-2" d="M23.39,7.5a8.81,8.81,0,0,0-8.94,8.67,8.43,8.43,0,0,0,2.49,6,2.18,2.18,0,0,0-2.22.72L8.81,30a2.11,2.11,0,0,0,.33,3,2.26,2.26,0,0,0,3.09-.33l5.92-7.16a2.07,2.07,0,0,0,.27-2.22,9.06,9.06,0,0,0,5,1.44,8.84,8.84,0,0,0,8.94-8.67A8.79,8.79,0,0,0,23.39,7.5Zm0,14.2a5.54,5.54,0,1,1,0-11.07,5.62,5.62,0,0,1,5.72,5.54A5.62,5.62,0,0,1,23.39,21.7Z"/></svg>